<svg width="903" height="190" viewBox="0 0 903 190" fill="none" xmlns="http://www.w3.org/2000/svg">
<path d="M255.182 116.356V74.68H265.713V116.356H255.182ZM220 116.356V74.68H230.531V116.356H220ZM265.713 74.7952H255.182C255.182 70.8041 254.063 67.734 251.826 65.585C249.665 63.436 246.656 62.3614 242.799 62.3614V53.2664C247.351 53.2664 251.324 54.1874 254.719 56.0294C258.191 57.7947 260.891 60.3275 262.82 63.6278C264.749 66.8514 265.713 70.5739 265.713 74.7952ZM220 74.7952C220 70.5739 220.964 66.8514 222.893 63.6278C224.822 60.3275 227.522 57.7947 230.994 56.0294C234.466 54.1874 238.44 53.2664 242.914 53.2664V62.3614C239.057 62.3614 236.009 63.436 233.772 65.585C231.612 67.734 230.531 70.8041 230.531 74.7952H220ZM265.713 116.241C265.713 120.539 264.749 124.3 262.82 127.523C260.891 130.747 258.191 133.28 254.719 135.122C251.324 136.964 247.351 137.885 242.799 137.885V128.79C246.656 128.79 249.665 127.715 251.826 125.566C254.063 123.34 255.182 120.232 255.182 116.241H265.713ZM220 116.241H230.531C230.531 120.232 231.612 123.34 233.772 125.566C236.009 127.715 239.057 128.79 242.914 128.79V137.885C238.44 137.885 234.466 136.964 230.994 135.122C227.522 133.28 224.822 130.747 222.893 127.523C220.964 124.3 220 120.539 220 116.241Z" fill="white"/>
<path d="M285.837 64.0883V54.9933H297.641V64.0883H285.837ZM285.837 104.958V95.8635H297.641V104.958H285.837ZM309.908 83.4297V76.5221H320.44V83.4297H309.908ZM320.44 76.5221H309.908C309.908 72.531 308.79 69.461 306.552 67.3119C304.392 65.1629 301.383 64.0883 297.525 64.0883V54.9933C302.077 54.9933 306.051 55.9143 309.446 57.7564C312.917 59.5216 315.618 62.0544 317.547 65.3548C319.475 68.5783 320.44 72.3008 320.44 76.5221ZM320.44 83.3146C320.44 87.6127 319.475 91.3735 317.547 94.5971C315.618 97.8206 312.917 100.353 309.446 102.195C306.051 104.037 302.077 104.958 297.525 104.958V95.8635C301.383 95.8635 304.392 94.7506 306.552 92.5248C308.79 90.299 309.908 87.2289 309.908 83.3146H320.44ZM279.009 136.158V54.9933H289.54V136.158H279.009Z" fill="white"/>
<path d="M336.786 136.158V127.063H368.843V136.158H336.786ZM338.522 100.353V91.0281H361.899V100.353H338.522ZM330.884 54.9933H341.415V136.158H330.884V54.9933ZM337.943 54.9933H367.686V64.0883H337.943V54.9933Z" fill="white"/>
<path d="M411.516 136.158L396.703 96.5542H407.466L422.279 136.158H411.516ZM387.213 101.735V92.755H399.018V101.735H387.213ZM387.213 64.0883V54.9933H399.018V64.0883H387.213ZM411.285 80.3213V76.407H421.816V80.3213H411.285ZM421.816 76.5221H411.285C411.285 72.531 410.166 69.461 407.929 67.3119C405.769 65.1629 402.76 64.0883 398.902 64.0883V54.9933C403.454 54.9933 407.427 55.9143 410.822 57.7564C414.294 59.5216 416.994 62.0544 418.923 65.3548C420.852 68.5783 421.816 72.3008 421.816 76.5221ZM421.816 80.2062C421.816 84.4275 420.852 88.1883 418.923 91.4886C416.994 94.7122 414.294 97.245 410.822 99.087C407.427 100.852 403.454 101.735 398.902 101.735V92.755C402.76 92.755 405.769 91.6421 407.929 89.4163C410.166 87.1905 411.285 84.1205 411.285 80.2062H421.816ZM380.385 136.158V54.9933H390.917V136.158H380.385Z" fill="white"/>
<path d="M441.494 119.925V110.945H471.121V119.925H441.494ZM460.127 54.9933L440.221 136.158H429.805L449.711 54.9933H460.127ZM460.358 54.9933L480.264 136.158H469.964L449.942 54.9933H460.358Z" fill="white"/>
<path d="M482.218 64.0883V54.9933H530.246V64.0883H482.218ZM500.967 136.158V54.9933H511.498V136.158H500.967Z" fill="white"/>
<path d="M540.671 136.158V54.9933H551.202V136.158H540.671Z" fill="white"/>
<path d="M600.902 116.356V74.68H611.433V116.356H600.902ZM565.72 116.356V74.68H576.251V116.356H565.72ZM611.433 74.7952H600.902C600.902 70.8041 599.783 67.734 597.546 65.585C595.385 63.436 592.377 62.3614 588.519 62.3614V53.2664C593.071 53.2664 597.044 54.1874 600.439 56.0294C603.911 57.7947 606.611 60.3275 608.54 63.6278C610.469 66.8514 611.433 70.5739 611.433 74.7952ZM565.72 74.7952C565.72 70.5739 566.685 66.8514 568.613 63.6278C570.542 60.3275 573.243 57.7947 576.714 56.0294C580.186 54.1874 584.16 53.2664 588.635 53.2664V62.3614C584.777 62.3614 581.729 63.436 579.492 65.585C577.332 67.734 576.251 70.8041 576.251 74.7952H565.72ZM611.433 116.241C611.433 120.539 610.469 124.3 608.54 127.523C606.611 130.747 603.911 133.28 600.439 135.122C597.044 136.964 593.071 137.885 588.519 137.885V128.79C592.377 128.79 595.385 127.715 597.546 125.566C599.783 123.34 600.902 120.232 600.902 116.241H611.433ZM565.72 116.241H576.251C576.251 120.232 577.332 123.34 579.492 125.566C581.729 127.715 584.777 128.79 588.635 128.79V137.885C584.16 137.885 580.186 136.964 576.714 135.122C573.243 133.28 570.542 130.747 568.613 127.523C566.685 124.3 565.72 120.539 565.72 116.241Z" fill="white"/>
<path d="M659.332 136.158L626.696 54.9933H636.996L669.632 136.158H659.332ZM624.729 136.158V54.9933H635.26V136.158H624.729ZM662.109 136.158V54.9933H672.641V136.158H662.109Z" fill="white"/>
<path d="M736.137 136.158L754.191 53.842H766.574L748.52 136.158H736.137ZM735.674 136.158L717.62 53.842H730.003L748.057 136.158H735.674ZM708.362 136.158V53.842H724.679V136.158H708.362ZM759.514 136.158V53.842H775.832V136.158H759.514Z" fill="#60A7F6"/>
<path d="M824.221 114.629V75.2557H840.539V114.629H824.221ZM789.155 114.629V75.2557H805.473V114.629H789.155ZM840.539 75.3708H824.221C824.221 71.9938 823.373 69.3842 821.675 67.5422C819.978 65.7001 817.663 64.7791 814.732 64.7791V52.1151C819.669 52.1151 824.067 53.1129 827.925 55.1084C831.86 57.104 834.946 59.867 837.183 63.3976C839.421 66.9282 840.539 70.9192 840.539 75.3708ZM789.155 75.3708C789.155 70.9192 790.274 66.9282 792.512 63.3976C794.749 59.867 797.797 57.104 801.654 55.1084C805.589 53.1129 810.025 52.1151 814.963 52.1151V64.7791C812.031 64.7791 809.717 65.7001 808.019 67.5422C806.322 69.3842 805.473 71.9938 805.473 75.3708H789.155ZM840.539 114.514C840.539 119.042 839.421 123.072 837.183 126.602C834.946 130.056 831.86 132.819 827.925 134.892C824.067 136.887 819.669 137.885 814.732 137.885V125.221C817.663 125.221 819.978 124.3 821.675 122.458C823.373 120.539 824.221 117.891 824.221 114.514H840.539ZM789.155 114.514H805.473C805.473 117.891 806.322 120.539 808.019 122.458C809.717 124.3 812.031 125.221 814.963 125.221V137.885C810.025 137.885 805.589 136.887 801.654 134.892C797.797 132.819 794.749 130.056 792.512 126.602C790.274 123.072 789.155 119.042 789.155 114.514Z" fill="#60A7F6"/>
<path d="M886.682 116.701C886.682 114.092 885.833 111.828 884.136 109.909C882.439 107.99 880.278 106.187 877.655 104.498C875.032 102.809 872.216 101.083 869.207 99.3173C866.275 97.4752 863.498 95.4029 860.874 93.1004C858.251 90.7211 856.091 87.9581 854.393 84.8112C852.773 81.5877 851.963 77.7117 851.963 73.1834H868.281C868.281 75.7162 869.091 77.9804 870.711 79.9759C872.409 81.8947 874.569 83.6983 877.192 85.3869C879.815 87.0754 882.593 88.8407 885.525 90.6827C888.534 92.448 891.35 94.5203 893.973 96.8996C896.596 99.2021 898.757 101.965 900.454 105.189C902.151 108.336 903 112.173 903 116.701H886.682ZM851.963 73.2985C851.963 69.0772 853.082 65.3931 855.319 62.2463C857.557 59.0995 860.604 56.6051 864.462 54.7631C868.397 52.921 872.833 52 877.771 52V64.664C874.839 64.664 872.524 65.4315 870.827 66.9665C869.13 68.5016 868.281 70.6122 868.281 73.2985H851.963ZM903 116.701C903 120.846 901.881 124.53 899.644 127.754C897.406 130.9 894.32 133.395 890.385 135.237C886.528 137.079 882.13 138 877.192 138V125.221C880.124 125.221 882.439 124.492 884.136 123.033C885.833 121.498 886.682 119.388 886.682 116.701H903ZM886.335 74.1044C885.949 71.0344 884.985 68.6934 883.442 67.0817C881.899 65.4699 880.008 64.664 877.771 64.664V52C881.86 52 885.525 52.8059 888.765 54.4177C892.006 55.9527 894.667 58.1785 896.751 61.095C898.834 63.9349 900.184 67.3887 900.801 71.4565L886.335 74.1044ZM865.619 110.945C865.928 115.473 867.085 119.004 869.091 121.537C871.174 123.993 873.875 125.221 877.192 125.221V138C869.708 138 863.652 135.851 859.023 131.553C854.393 127.255 851.693 121.268 850.922 113.593L865.619 110.945Z" fill="#60A7F6"/>
<path fill-rule="evenodd" clip-rule="evenodd" d="M95 0C147.467 0 190 42.5329 190 95C190 147.467 147.467 190 95 190C42.5329 190 0 147.467 0 95C0 42.5329 42.5329 0 95 0ZM95 12.667C49.5286 12.667 12.667 49.5286 12.667 95C12.667 140.471 49.5286 177.333 95 177.333C140.471 177.333 177.333 140.471 177.333 95C177.333 49.5286 140.471 12.667 95 12.667Z" fill="white"/>
<path d="M139.484 94.1029L94.8568 136.714L50.0527 93.2316V114.581L86.3564 148.129L82.3718 152.051L74.934 159.109L35 123.295V58.3759L95.5651 111.444L154.536 58.3759V122.423L115.576 159.109L106.279 151.702L101.852 148.129L139.484 113.709V94.1029Z" fill="#60A7F6"/>
<path fill-rule="evenodd" clip-rule="evenodd" d="M96.2076 36.246L100.587 49.8102C100.781 50.4193 101.325 50.8135 101.962 50.8118L116.217 50.7841C116.853 50.7841 117.398 51.1757 117.595 51.7831C117.789 52.3895 117.582 53.0246 117.067 53.3983L105.52 61.7546C105.002 62.1292 104.794 62.7687 104.994 63.3725L109.423 76.9214C109.623 77.5279 109.415 78.163 108.899 78.5393C108.384 78.9139 107.714 78.9113 107.2 78.5367L95.6841 70.1349C95.1686 69.7612 94.4987 69.7612 93.9823 70.1349L82.466 78.5367C81.9532 78.9113 81.2825 78.9131 80.7669 78.5393C80.2514 78.163 80.0436 77.5279 80.2434 76.9214L84.6726 63.3725C84.8724 62.7687 84.6646 62.1283 84.1464 61.7546L72.6015 53.3974C72.086 53.0228 71.8755 52.3887 72.0735 51.7822C72.2715 51.1757 72.8147 50.7832 73.4515 50.7832L87.7033 50.8109C88.3428 50.8135 88.8869 50.4193 89.0813 49.8093L93.4606 36.2452C93.655 35.6387 94.1964 35.2462 94.8332 35.2462C95.4718 35.248 96.0132 35.6395 96.2076 36.246Z" fill="#F6A660"/>
</svg>
